<svg id="Layer_1" data-name="Layer 1" xmlns="http://www.w3.org/2000/svg" viewBox="0 0 2000 393.68"><defs><style>.cls-1{fill:#fed3da;}</style></defs><path class="cls-1" d="M0,1.17V385.05Q24.44,387.3,48.93,389q62.54,4.33,125.25,5.44,79,1.47,158-2,90.58-4,180.69-15A1951.67,1951.67,0,0,0,706.16,344Q772.78,328.84,838,308.3c41.24-13.08,80.14-30.38,120.56-46a1659.08,1659.08,0,0,1,255.2-75.73c118.43-25,240.85-38.83,361.69-44.9,69.52-3.49,139.26-3.61,208.75.71,70.94,4.41,141.71,13.44,211.14,28.81l4.63,1V1.17Z" transform="translate(0 -1.17)"/></svg>